<mxfile host="65bd71144e">
    <diagram id="T-wiU5mjsyKWE4lqMnDb" name="Ridc Components">
        <mxGraphModel dx="752" dy="619" grid="1" gridSize="10" guides="1" tooltips="1" connect="1" arrows="1" fold="1" page="1" pageScale="1" pageWidth="827" pageHeight="1169" math="0" shadow="0">
            <root>
                <mxCell id="0"/>
                <mxCell id="1" parent="0"/>
                <mxCell id="rcBNrq-OaNJEOhVmSbwv-8" style="edgeStyle=orthogonalEdgeStyle;html=1;endArrow=none;endFill=0;dashed=1;" parent="1" source="rcBNrq-OaNJEOhVmSbwv-9" edge="1">
                    <mxGeometry relative="1" as="geometry">
                        <mxPoint x="480" y="585" as="targetPoint"/>
                    </mxGeometry>
                </mxCell>
                <mxCell id="rcBNrq-OaNJEOhVmSbwv-9" value="«Spring Batch»&lt;br&gt;&lt;b&gt;Proceso Batch&lt;/b&gt;" style="html=1;dropTarget=0;" parent="1" vertex="1">
                    <mxGeometry x="200" y="640" width="160" height="80" as="geometry"/>
                </mxCell>
                <mxCell id="rcBNrq-OaNJEOhVmSbwv-10" value="" style="shape=module;jettyWidth=8;jettyHeight=4;" parent="rcBNrq-OaNJEOhVmSbwv-9" vertex="1">
                    <mxGeometry x="1" width="20" height="20" relative="1" as="geometry">
                        <mxPoint x="-27" y="7" as="offset"/>
                    </mxGeometry>
                </mxCell>
                <mxCell id="rcBNrq-OaNJEOhVmSbwv-11" style="edgeStyle=orthogonalEdgeStyle;html=1;endArrow=none;endFill=0;dashed=1;" parent="1" source="rcBNrq-OaNJEOhVmSbwv-12" edge="1">
                    <mxGeometry relative="1" as="geometry">
                        <mxPoint x="480" y="585" as="targetPoint"/>
                    </mxGeometry>
                </mxCell>
                <mxCell id="rcBNrq-OaNJEOhVmSbwv-12" value="«Spring Boot»&lt;br&gt;&lt;b&gt;Web Service&lt;/b&gt;" style="html=1;dropTarget=0;" parent="1" vertex="1">
                    <mxGeometry x="200" y="480" width="160" height="80" as="geometry"/>
                </mxCell>
                <mxCell id="rcBNrq-OaNJEOhVmSbwv-13" value="" style="shape=module;jettyWidth=8;jettyHeight=4;" parent="rcBNrq-OaNJEOhVmSbwv-12" vertex="1">
                    <mxGeometry x="1" width="20" height="20" relative="1" as="geometry">
                        <mxPoint x="-27" y="7" as="offset"/>
                    </mxGeometry>
                </mxCell>
                <mxCell id="rcBNrq-OaNJEOhVmSbwv-14" value="«Starter»&lt;br&gt;&lt;b&gt;RIdc&lt;/b&gt;" style="html=1;dropTarget=0;" parent="1" vertex="1">
                    <mxGeometry x="520" y="560" width="120" height="80" as="geometry"/>
                </mxCell>
                <mxCell id="rcBNrq-OaNJEOhVmSbwv-15" value="" style="shape=module;jettyWidth=8;jettyHeight=4;" parent="rcBNrq-OaNJEOhVmSbwv-14" vertex="1">
                    <mxGeometry x="1" width="20" height="20" relative="1" as="geometry">
                        <mxPoint x="-27" y="7" as="offset"/>
                    </mxGeometry>
                </mxCell>
                <mxCell id="rcBNrq-OaNJEOhVmSbwv-16" value="" style="endArrow=none;html=1;rounded=0;align=center;verticalAlign=top;endFill=0;labelBackgroundColor=none;endSize=2;dashed=1;startArrow=open;startFill=0;" parent="1" source="rcBNrq-OaNJEOhVmSbwv-14" edge="1">
                    <mxGeometry relative="1" as="geometry">
                        <mxPoint x="314" y="575" as="sourcePoint"/>
                        <mxPoint x="480" y="600" as="targetPoint"/>
                    </mxGeometry>
                </mxCell>
                <mxCell id="uFZLWmpBEKbijQ79kj3v-1" value="" style="fontStyle=0;labelPosition=right;verticalLabelPosition=middle;align=left;verticalAlign=middle;spacingLeft=2;" parent="1" vertex="1">
                    <mxGeometry x="170" y="505" width="30" height="30" as="geometry"/>
                </mxCell>
                <mxCell id="uFZLWmpBEKbijQ79kj3v-2" value="" style="fontStyle=0;labelPosition=right;verticalLabelPosition=middle;align=left;verticalAlign=middle;spacingLeft=2;" parent="1" vertex="1">
                    <mxGeometry x="170" y="660" width="30" height="30" as="geometry"/>
                </mxCell>
                <mxCell id="RHpW1vQS7LW0RLV8FBML-1" style="edgeStyle=orthogonalEdgeStyle;html=1;entryX=0.383;entryY=1.054;entryDx=0;entryDy=0;entryPerimeter=0;" parent="1" source="RHpW1vQS7LW0RLV8FBML-2" target="RHpW1vQS7LW0RLV8FBML-10" edge="1">
                    <mxGeometry relative="1" as="geometry">
                        <Array as="points">
                            <mxPoint x="475" y="1000"/>
                        </Array>
                    </mxGeometry>
                </mxCell>
                <mxCell id="RHpW1vQS7LW0RLV8FBML-2" value="«Spring Batch»&lt;br&gt;&lt;b&gt;Proceso Batch&lt;/b&gt;" style="html=1;dropTarget=0;" parent="1" vertex="1">
                    <mxGeometry x="200" y="960" width="160" height="80" as="geometry"/>
                </mxCell>
                <mxCell id="RHpW1vQS7LW0RLV8FBML-3" value="" style="shape=module;jettyWidth=8;jettyHeight=4;" parent="RHpW1vQS7LW0RLV8FBML-2" vertex="1">
                    <mxGeometry x="1" width="20" height="20" relative="1" as="geometry">
                        <mxPoint x="-27" y="7" as="offset"/>
                    </mxGeometry>
                </mxCell>
                <mxCell id="RHpW1vQS7LW0RLV8FBML-4" style="edgeStyle=orthogonalEdgeStyle;html=1;" parent="1" source="RHpW1vQS7LW0RLV8FBML-5" target="RHpW1vQS7LW0RLV8FBML-10" edge="1">
                    <mxGeometry relative="1" as="geometry"/>
                </mxCell>
                <mxCell id="RHpW1vQS7LW0RLV8FBML-5" value="«Spring Boot»&lt;br&gt;&lt;b&gt;Web Service&lt;/b&gt;" style="html=1;dropTarget=0;" parent="1" vertex="1">
                    <mxGeometry x="200" y="800" width="160" height="80" as="geometry"/>
                </mxCell>
                <mxCell id="RHpW1vQS7LW0RLV8FBML-6" value="" style="shape=module;jettyWidth=8;jettyHeight=4;" parent="RHpW1vQS7LW0RLV8FBML-5" vertex="1">
                    <mxGeometry x="1" width="20" height="20" relative="1" as="geometry">
                        <mxPoint x="-27" y="7" as="offset"/>
                    </mxGeometry>
                </mxCell>
                <mxCell id="RHpW1vQS7LW0RLV8FBML-7" value="«Microservice»&lt;br&gt;&lt;b&gt;RIdc&lt;/b&gt;" style="html=1;dropTarget=0;" parent="1" vertex="1">
                    <mxGeometry x="520" y="880" width="120" height="80" as="geometry"/>
                </mxCell>
                <mxCell id="RHpW1vQS7LW0RLV8FBML-8" value="" style="shape=module;jettyWidth=8;jettyHeight=4;" parent="RHpW1vQS7LW0RLV8FBML-7" vertex="1">
                    <mxGeometry x="1" width="20" height="20" relative="1" as="geometry">
                        <mxPoint x="-27" y="7" as="offset"/>
                    </mxGeometry>
                </mxCell>
                <mxCell id="RHpW1vQS7LW0RLV8FBML-9" value="" style="endArrow=none;html=1;rounded=0;align=center;verticalAlign=top;endFill=0;labelBackgroundColor=none;endSize=2;" parent="1" source="RHpW1vQS7LW0RLV8FBML-7" target="RHpW1vQS7LW0RLV8FBML-10" edge="1">
                    <mxGeometry relative="1" as="geometry">
                        <mxPoint x="304" y="910" as="sourcePoint"/>
                    </mxGeometry>
                </mxCell>
                <mxCell id="RHpW1vQS7LW0RLV8FBML-10" value="" style="ellipse;html=1;fontSize=11;align=center;fillColor=none;points=[];aspect=fixed;resizable=0;verticalAlign=bottom;labelPosition=center;verticalLabelPosition=top;flipH=1;" parent="1" vertex="1">
                    <mxGeometry x="470" y="916" width="8" height="8" as="geometry"/>
                </mxCell>
                <mxCell id="RHpW1vQS7LW0RLV8FBML-11" value="REST" style="text;html=1;align=center;verticalAlign=middle;resizable=0;points=[];autosize=1;strokeColor=none;fillColor=none;" parent="1" vertex="1">
                    <mxGeometry x="404" y="905" width="60" height="30" as="geometry"/>
                </mxCell>
                <mxCell id="RHpW1vQS7LW0RLV8FBML-12" value="" style="fontStyle=0;labelPosition=right;verticalLabelPosition=middle;align=left;verticalAlign=middle;spacingLeft=2;" parent="1" vertex="1">
                    <mxGeometry x="170" y="825" width="30" height="30" as="geometry"/>
                </mxCell>
                <mxCell id="RHpW1vQS7LW0RLV8FBML-13" value="" style="fontStyle=0;labelPosition=right;verticalLabelPosition=middle;align=left;verticalAlign=middle;spacingLeft=2;" parent="1" vertex="1">
                    <mxGeometry x="170" y="985" width="30" height="30" as="geometry"/>
                </mxCell>
                <mxCell id="hdXYQvpX8mtlIiocqK8w-5" value="" style="line;strokeWidth=4;html=1;perimeter=backbonePerimeter;points=[];outlineConnect=0;" parent="1" vertex="1">
                    <mxGeometry x="40" y="750" width="680" height="10" as="geometry"/>
                </mxCell>
            </root>
        </mxGraphModel>
    </diagram>
</mxfile>